<?xml version="1.0" standalone="no"?>
<!DOCTYPE svg PUBLIC "-//W3C//DTD SVG 20010904//EN"
 "http://www.w3.org/TR/2001/REC-SVG-20010904/DTD/svg10.dtd">
<svg version="1.0" xmlns="http://www.w3.org/2000/svg"
 width="200.000000pt" height="200.000000pt" viewBox="0 0 200.000000 200.000000"
 preserveAspectRatio="xMidYMid meet">
<metadata>
Created by potrace 1.11, written by Peter Selinger 2001-2013
</metadata>
<g transform="translate(0.000000,200.000000) scale(0.100000,-0.100000)"
fill="#000000" stroke="none">
<path d="M415 1812 c3 -15 18 -58 33 -97 25 -67 26 -69 36 -42 5 15 13 27 17
27 3 0 108 -105 232 -232 124 -128 229 -237 233 -241 4 -4 -83 -99 -195 -211
-184 -184 -205 -202 -231 -198 -18 3 -35 -2 -45 -12 -16 -16 -12 -41 5 -31 5
3 11 1 15 -5 9 -14 -18 -13 -33 2 -9 9 -12 9 -12 -1 0 -7 -4 -10 -9 -7 -4 3
-19 -6 -31 -19 l-23 -25 32 0 c18 0 30 -4 27 -9 -3 -5 -20 -8 -37 -7 -22 2
-40 -5 -57 -21 l-25 -23 34 0 33 0 -52 -53 c-49 -50 -66 -87 -40 -87 7 0 34
21 60 47 45 44 48 46 48 23 l0 -25 26 28 c14 15 24 34 21 41 -3 7 -1 19 4 27
7 11 9 10 9 -4 0 -15 3 -16 21 -7 11 6 24 21 29 33 5 12 9 18 9 13 2 -22 41
30 41 53 0 21 43 69 203 229 111 111 205 202 209 202 6 0 89 -83 311 -313 93
-97 98 -104 93 -139 -3 -29 1 -41 20 -59 l24 -22 0 31 c0 18 5 32 11 32 7 0
10 -14 7 -35 -3 -27 1 -40 19 -57 l23 -21 0 22 c0 12 4 20 9 17 4 -3 6 -17 3
-31 -3 -16 2 -33 13 -45 22 -25 32 -25 32 -2 0 9 1 23 2 30 0 6 24 -13 53 -43
28 -30 57 -55 65 -55 25 0 13 36 -27 75 -44 43 -49 55 -23 55 14 0 12 4 -7 25
-16 17 -31 23 -47 21 -13 -3 -21 -1 -18 5 4 5 12 6 18 3 7 -4 1 5 -12 19 -14
15 -33 27 -43 27 -10 0 -18 5 -18 10 0 6 5 10 12 10 6 0 3 9 -7 20 -10 11 -28
20 -40 20 -14 0 -83 64 -221 206 -109 114 -203 213 -208 221 -6 12 50 74 240
264 l249 249 16 -37 16 -38 35 90 c19 50 31 91 26 93 -4 2 -47 -11 -95 -29
-82 -31 -85 -34 -60 -44 26 -11 23 -14 -222 -259 l-248 -248 -120 124 c-66 68
-172 177 -236 243 l-116 120 32 14 c22 9 27 15 17 19 -8 3 -50 20 -93 38 l-79
33 7 -27z"/>
<path d="M1080 1796 c-77 -49 -113 -109 -116 -193 -2 -44 -9 -74 -23 -97 -37
-60 -18 -65 33 -8 21 23 45 38 60 40 94 7 173 113 172 227 l-1 60 -35 3 c-26
2 -49 -6 -90 -32z m59 -30 c-9 -19 -17 -25 -31 -20 -14 4 -18 0 -18 -20 0 -40
-10 -58 -26 -45 -18 15 -33 3 -27 -20 5 -21 -26 -83 -38 -76 -11 7 10 86 33
123 19 31 106 97 115 88 2 -2 -2 -15 -8 -30z m31 -18 c0 -19 -18 -44 -25 -36
-4 3 0 15 7 27 15 24 18 26 18 9z m-27 -89 c-21 -37 -69 -79 -89 -79 -28 0
-13 22 26 37 41 16 53 33 23 33 -14 0 -14 2 2 20 10 11 27 20 37 20 19 0 19
-1 1 -31z"/>
<path d="M1484 1415 c-59 -77 -64 -152 -14 -197 44 -40 91 -38 118 4 27 42 21
90 -17 143 -17 24 -31 53 -31 64 0 32 -26 25 -56 -14z m59 -67 c29 -44 34 -77
17 -109 -23 -42 -90 -3 -90 53 0 27 28 98 40 98 3 0 18 -19 33 -42z"/>
<path d="M307 1292 c-10 -10 -17 -26 -17 -35 0 -26 22 -32 40 -10 l17 21 32
-25 c40 -32 79 -33 103 -3 l18 22 31 -26 c35 -29 70 -33 93 -10 19 18 20 26 5
41 -9 9 -16 9 -29 1 -15 -9 -24 -6 -50 15 -39 34 -64 34 -94 2 l-24 -26 -30
26 c-35 30 -72 32 -95 7z"/>
<path d="M307 1192 c-10 -10 -17 -26 -17 -36 0 -24 30 -33 42 -13 12 22 20 21
48 -3 13 -11 26 -21 29 -21 36 -8 54 -3 71 18 l20 25 31 -26 c34 -29 66 -33
94 -12 28 21 13 49 -23 41 -20 -4 -33 -1 -42 11 -33 39 -86 37 -117 -5 -10
-14 -15 -13 -40 12 -34 31 -73 35 -96 9z"/>
<path d="M1585 1155 c-27 -25 -55 -45 -62 -45 -7 0 -35 14 -61 30 -27 17 -54
30 -61 30 -25 0 -8 -23 39 -52 28 -17 50 -34 50 -38 0 -4 -16 -18 -35 -31 -19
-13 -37 -29 -39 -36 -9 -23 12 -23 45 2 68 49 71 50 130 16 35 -20 59 -27 68
-22 14 9 16 8 -67 58 l-33 20 50 43 c49 41 65 71 39 70 -7 -1 -35 -21 -63 -45z"/>
<path d="M330 1103 c-21 -7 -40 -34 -40 -55 0 -23 36 -24 48 -1 9 15 13 14 42
-10 38 -32 74 -35 97 -7 22 26 29 25 63 -4 43 -35 111 -15 94 28 -5 13 -14 15
-36 11 -23 -5 -34 -2 -49 14 -25 27 -67 27 -95 0 l-23 -22 -31 27 c-32 26 -42
29 -70 19z"/>
<path d="M830 845 c0 -20 -47 -68 -59 -61 -5 3 -12 -2 -15 -11 -4 -9 -1 -20 5
-24 13 -8 66 8 75 22 3 6 19 2 37 -9 38 -22 67 -21 103 3 15 10 29 13 33 8 20
-31 76 -35 115 -10 16 11 25 10 53 -4 19 -10 41 -15 49 -12 20 7 18 33 -3 39
-35 11 -48 21 -53 45 -9 35 -33 34 -50 -4 -24 -52 -94 -49 -102 6 -5 34 -31
31 -48 -6 -24 -52 -94 -49 -102 6 -4 26 -38 37 -38 12z"/>
<path d="M879 322 c0 -9 -2 -63 -2 -120 -2 -100 -1 -102 21 -102 12 0 22 6 23
13 2 36 6 54 15 70 9 15 14 10 34 -33 18 -39 29 -50 47 -50 13 0 23 2 23 5 0
3 -13 32 -30 65 -16 33 -30 64 -30 70 0 6 11 28 25 50 14 22 25 41 25 43 0 2
-11 3 -25 3 -18 0 -30 -10 -47 -42 -26 -49 -38 -48 -35 3 2 30 -1 36 -20 39
-16 3 -23 -1 -24 -14z"/>
</g>
</svg>
